# xmcd
#
# Track frame offsets:
#	150
#	23460
#	45615
#	66482
#	87603
#	118323
#	139256
#	159360
#	182535
#
# Disc length: 2797 seconds
#
# Revision: 2
# Processed by: cddbd v1.5.2PL0 Copyright (c) Steve Scherf et al.
# Submitted via: audiograbber 1.83.01
#
DISCID=790aeb09
DTITLE=Various Artist - Nuevo Ritmo De La Tierra [CD 2 Ghana) [Abdul Raheem - Che-Che]
DYEAR=1993
DGENRE=Folk
TTITLE0=Abdul Raheem - Che-Che
TTITLE1=Abdul Raheem - Georgi
TTITLE2=Abdul Raheem - Kilikilbo
TTITLE3=Abdul Raheem - African Queen
TTITLE4=Abdul Raheem - Mother
TTITLE5=Abdul Raheem - Tayaman
TTITLE6=Abdul Raheem - Alaiye
TTITLE7=Abdul Raheem - Gege Iyawo
TTITLE8=Abdul Raheem - Che-Che [Instrumental]
EXTD=YEAR: 1993
EXTT0=
EXTT1=
EXTT2=
EXTT3=
EXTT4=
EXTT5=
EXTT6=
EXTT7=
EXTT8=
PLAYORDER=
